<?xml version="1.0" standalone="no"?>
<!DOCTYPE svg PUBLIC "-//W3C//DTD SVG 20010904//EN"
 "http://www.w3.org/TR/2001/REC-SVG-20010904/DTD/svg10.dtd">
<svg version="1.0" xmlns="http://www.w3.org/2000/svg"
 width="400.000000pt" height="400.000000pt" viewBox="0 0 400.000000 400.000000"
 preserveAspectRatio="xMidYMid meet">
<metadata>
Created by potrace 1.15, written by Peter Selinger 2001-2017
</metadata>
<g transform="translate(0.000000,400.000000) scale(0.100000,-0.100000)"
fill="#000000" stroke="none">
<path d="M0 2000 l0 -2000 2000 0 2000 0 0 2000 0 2000 -2000 0 -2000 0 0
-2000z m2319 1052 c313 -70 486 -269 484 -557 -1 -193 -82 -332 -247 -426
l-58 -32 69 -27 c166 -65 282 -178 334 -326 15 -44 20 -83 20 -154 -1 -320
-200 -522 -581 -591 -58 -11 -212 -14 -670 -14 l-595 0 -3 158 -3 157 126 0
125 0 0 760 0 760 -125 0 -125 0 0 153 c0 85 3 157 7 161 4 4 264 6 578 3 536
-3 576 -5 664 -25z"/>
<path d="M1670 2470 l0 -290 243 0 c258 0 314 7 405 53 156 77 189 299 63 424
-78 79 -192 102 -493 103 l-218 0 0 -290z"/>
<path d="M1670 1555 l0 -317 293 5 c308 5 356 11 456 59 102 49 154 132 155
248 1 81 -17 132 -62 182 -48 53 -104 84 -198 109 -69 19 -114 22 -361 26
l-283 5 0 -317z"/>
</g>
</svg>
