<svg width="70" height="70" viewBox="0 0 70 70" fill="none" xmlns="http://www.w3.org/2000/svg">
<circle cx="35" cy="35" r="35" fill="black"/>
<path fill-rule="evenodd" clip-rule="evenodd" d="M23 21.3235V23.6471H24.8239H26.6478V34.9232V46.1994H24.8239H23V48.5996V51L32.0868 50.9444C39.9081 50.8965 41.3093 50.8574 42.147 50.6637C46.1182 49.7454 48.4726 47.9461 49.5187 45.0303C49.9152 43.925 50.0957 42.2143 49.9498 40.9429C49.6509 38.3382 47.6001 35.9528 44.7526 34.8978C44.1818 34.6862 43.7146 34.4803 43.7145 34.4401C43.7142 34.3998 44.0894 34.1727 44.5481 33.9354C45.6355 33.3727 46.9488 32.0766 47.4692 31.0522C48.5697 28.8859 48.5101 25.9597 47.3169 23.5788C46.1506 21.2519 43.3763 19.6022 39.8709 19.1516C39.1355 19.057 35.7724 19.0007 30.8492 19.0004L23 19V21.3235ZM39.2569 23.7886C41.2789 24.1329 42.709 25.1913 43.1156 26.6448C43.6606 28.593 43.0173 30.4035 41.4338 31.3769C40.2436 32.1089 39.1925 32.258 35.2252 32.258H31.5983V27.9525V23.6471L35.0181 23.6482C36.899 23.6488 38.8064 23.7119 39.2569 23.7886ZM41.0434 37.2293C42.3549 37.5468 43.4669 38.1638 44.1369 38.9456C44.8115 39.7327 45.0502 40.4667 45.0392 41.7206C45.0211 43.782 43.8522 45.124 41.426 45.8679C40.7771 46.0669 39.9236 46.1145 36.1254 46.163L31.5983 46.221V41.5492V36.8774L35.8649 36.943C39.1514 36.9934 40.3409 37.0591 41.0434 37.2293Z" fill="white"/>
</svg>
